<?xml version="1.0" encoding="utf-8"?>
<!-- Generator: Adobe Illustrator 16.0.0, SVG Export Plug-In . SVG Version: 6.00 Build 0)  -->
<!DOCTYPE svg PUBLIC "-//W3C//DTD SVG 1.1//EN" "http://www.w3.org/Graphics/SVG/1.1/DTD/svg11.dtd">
<svg version="1.1" id="Ebene_1" xmlns="http://www.w3.org/2000/svg" xmlns:xlink="http://www.w3.org/1999/xlink" x="0px" y="0px"
	 width="414.23px" height="382.088px" viewBox="0 0 414.23 382.088" enable-background="new 0 0 414.23 382.088"
	 xml:space="preserve">
<g id="_x39_eUPA9_1_">
	<g>
		<path fill-rule="evenodd" clip-rule="evenodd" fill="#010202" d="M181.201,179.445c-6.917-5.583-7.583-22.917-2.5-55.5
			c2.389-15.314,7.703-29.645,17.25-41.25c6.568-7.984,13.898-9.783,24.833-13.5c5.44-1.722,26.767-1.75,40.167,9
			c11.227,9.007,14.289,28.261,19.977,28.061c5.528-0.195,7.023-34.727,41.088-33.171c28.97,1.323,20.936,24.11,28.974,31.554
			c3.163-0.669,2.244-18.407,9.962-27.193c3.168-3.607,8.455-4.368,15-3.25c10.25,1.75,15.271,4.125,11.667,11.667
			c-9.811,20.524-12.667,107.833,9.083,77.083c1.723-2.435,4.94-4.959,8.948-7.366c6.028-3.622,12.231,4.048,5.969,11.95
			c-12.584,11.292-13.076,15.396-24,24.667c-32.773,27.812-53.042,43.125-110.167,47.5c-32.526,0.482-68.304-3.604-98.5-17
			c-6.965-3.092-14.869-7.181-21.5-10.5c-3.267,12.316-7.448,28.03-10.677,40.372c-7.179,27.456-18.579,53.259-31.555,78.323
			c-8.807,17.01-20.718,31.772-37.148,42.301c-7.512,4.812-15.591,8.272-24.598,8.818c-15.228,0.925-26.16-6.377-32.784-19.386
			c-9.79-19.227-16.365-39.544-18.642-61.218c-1.903-18.116-3.005-36.314-0.924-54.318c4.366-37.771,12.978-71.868,41.387-98.475
			c13.914-13.03,35.009-20.65,54.74-19.356c9.065,0.594,17.092,4.024,24.832,8.377c3.034,1.707,5.956,3.614,9.661,5.877
			c0.724-7.176,1.61-13.843,2.015-20.539c0.491-8.148,1.082-16.342,0.728-24.477c-0.28-6.421-2.03-18.801,2.965-24.8
			c7.496-9.003,23.034-10.504,24.374-10.847c5.84-1.491,9.396,0.826,9.367,6.829c-0.049,10.486-0.437,20.991-1.197,31.45
			c-0.953,13.094-2.394,26.152-3.69,39.219c-0.739,7.443-1.996,24.59-2.058,26.589C164.184,168.936,178.81,177.836,181.201,179.445z
			 M66.285,161.862c-13.365,1.53-28.519,42.379-33.316,67.742c-4.797,25.362-15.285,117.641,31.011,119.78
			c10.381,0.48,29.647-32.191,34.897-45.222c9.114-22.626,16.456-45.889,20.646-70.023c1.931-11.125,3.44-28.766,5.099-39.931
			C124.963,191.923,86.869,159.506,66.285,161.862z M248.785,133.362c0.575-12.984,7.28-42.984-22.584-37.167
			c-7.118,1.386-19.25,6.917-22.25,30.25c-2.778,21.605-13.667,44.75,15.75,51.25C240.786,182.354,245.785,152.028,248.785,133.362z
			 M284.076,207.195c5.25,1.5,26.125-0.25,27.125-1.75s27.87-118.227-0.25-98.25C303.248,112.667,287.966,199.836,284.076,207.195z
			 M262.618,176.529c-1.196,3.163-7.614,13.833-12.286,18.286c-5.16,4.921-12.908,6.831-12.131,7.881
			c2.5,3.375,16.606,5.481,19.084,4.167C259.76,205.547,267.284,164.195,262.618,176.529z M356.951,192.195
			c0.392-0.98-8.195-37.368-8.5-27.25c-0.066,2.203-7.967,30.122-2.5,31.917C348.142,197.581,356.2,194.083,356.951,192.195z"/>
		<path fill-rule="evenodd" clip-rule="evenodd" fill="#010202" d="M397.894,64.667c-6.588,11.661-35.791,1.099-32.533-1.02
			s5.733-8.582,9.174-20.286c4.657-15.833,6.689-19.056,23.084-15.167c5.654,1.34,10.448,5.047,8.69,10.529
			C402.719,49.927,398.402,63.39,397.894,64.667z"/>
		<path fill-rule="evenodd" clip-rule="evenodd" fill="#010202" d="M126.657,27.599c1.413-15.166,38.02-34.282,37.538-25.287
			c-0.481,8.97,1.217,17.427,3.964,25.862c0.657,2.021,1.683,13.836,0.875,15.854c-4.652,11.611-14.433,10.449-26.067,14.728
			c-6.727,2.474-10.761,0.191-12.22-6.759C129.055,43.934,127.993,35.738,126.657,27.599z"/>
	</g>
</g>
</svg>
